<svg xmlns="http://www.w3.org/2000/svg" viewBox="0 0 500 500"><g id="freepik--background-complete--inject-47"><rect y="382.4" width="500" height="0.25" style="fill:#ebebeb"></rect><rect x="393.11" y="398.62" width="16.56" height="0.25" style="fill:#ebebeb"></rect><rect x="329.19" y="394.99" width="37.81" height="0.25" style="fill:#ebebeb"></rect><rect x="265" y="389.21" width="69.08" height="0.25" style="fill:#ebebeb"></rect><rect x="52.46" y="390.89" width="12.69" height="0.25" style="fill:#ebebeb"></rect><rect x="74.06" y="390.89" width="36.83" height="0.25" style="fill:#ebebeb"></rect><rect x="152.33" y="395.11" width="59.53" height="0.25" style="fill:#ebebeb"></rect><path d="M237,337.8H43.91a5.71,5.71,0,0,1-5.7-5.71V60.66A5.71,5.71,0,0,1,43.91,55H237a5.71,5.71,0,0,1,5.71,5.71V332.09A5.71,5.71,0,0,1,237,337.8ZM43.91,55.2a5.46,5.46,0,0,0-5.45,5.46V332.09a5.46,5.46,0,0,0,5.45,5.46H237a5.47,5.47,0,0,0,5.46-5.46V60.66A5.47,5.47,0,0,0,237,55.2Z" style="fill:#ebebeb"></path><path d="M453.31,337.8H260.21a5.72,5.72,0,0,1-5.71-5.71V60.66A5.72,5.72,0,0,1,260.21,55h193.1A5.71,5.71,0,0,1,459,60.66V332.09A5.71,5.71,0,0,1,453.31,337.8ZM260.21,55.2a5.47,5.47,0,0,0-5.46,5.46V332.09a5.47,5.47,0,0,0,5.46,5.46h193.1a5.47,5.47,0,0,0,5.46-5.46V60.66a5.47,5.47,0,0,0-5.46-5.46Z" style="fill:#ebebeb"></path><rect x="233.9" width="21.56" height="382.4" style="fill:#f5f5f5"></rect><rect x="255.46" width="3.03" height="382.4" transform="translate(513.95 382.4) rotate(180)" style="fill:#e0e0e0"></rect><path d="M139.17,343.88H25.5a12.66,12.66,0,0,1,12.67-12.66h101Z" style="fill:#e6e6e6"></path><path d="M147.5,343.88H97.83a12.66,12.66,0,0,1,12.67-12.66h37Z" style="fill:#e0e0e0"></path><path d="M218.59,343.88H104.92a12.66,12.66,0,0,1,12.67-12.66h101Z" style="fill:#e6e6e6"></path><path d="M226.92,343.88H177.25a12.66,12.66,0,0,1,12.67-12.66h37Z" style="fill:#e0e0e0"></path><path d="M380,343.88H266.29A12.66,12.66,0,0,1,279,331.22H380Z" style="fill:#e6e6e6"></path><path d="M388.29,343.88H338.62a12.66,12.66,0,0,1,12.67-12.66h37Z" style="fill:#e0e0e0"></path><polygon points="428.42 304.33 378.08 304.33 385.17 382.4 421.33 382.4 428.42 304.33" style="fill:#ebebeb"></polygon><path d="M402.75,317.35c-.92-32.3,6.63-99.17,20.14-126.37l.89.44c-13,26.12-21,93.33-20,125.9Z" style="fill:#ebebeb"></path><path d="M407.75,253.76s-3.31-31.27-15.53-40.86C385.67,232.64,399.09,239.44,407.75,253.76Z" style="fill:#ebebeb"></path><path d="M407.75,254.26a.51.51,0,0,1-.43-.24A90.94,90.94,0,0,0,400,244c-7.07-8.81-13.18-16.43-8.26-31.25a.5.5,0,0,1,.33-.32.49.49,0,0,1,.45.08c12.25,9.62,15.58,39.92,15.71,41.21a.48.48,0,0,1-.33.52Zm-15.28-40.51c-4.33,13.85,1.54,21.17,8.32,29.62,2.07,2.58,4.2,5.23,6.17,8.22C406,244.43,402.1,222,392.47,213.75Z" style="fill:#ebebeb"></path><path d="M409.56,241.91s13-28.91,27.64-34C437,228.68,422.39,231.17,409.56,241.91Z" style="fill:#ebebeb"></path><path d="M409.56,242.41a.49.49,0,0,1-.45-.7c.53-1.19,13.22-29.17,27.92-34.3a.5.5,0,0,1,.46.06.52.52,0,0,1,.21.41c-.14,15.79-8.42,21.19-18,27.43a100,100,0,0,0-9.79,7A.57.57,0,0,1,409.56,242.41Zm27.13-33.8c-11.82,4.74-22.56,25.08-25.73,31.54,2.73-2.12,5.49-3.92,8.18-5.67C428.34,228.48,436.3,223.3,436.69,208.61Z" style="fill:#ebebeb"></path><path d="M403.54,297.77s-5-43.5-20.18-55C375.76,267.1,392.63,280.43,403.54,297.77Z" style="fill:#ebebeb"></path><path d="M403.54,298.38a.6.6,0,0,1-.52-.28c-2.33-3.71-5-7.28-7.53-10.73-9.66-13.06-18.78-25.38-12.72-44.77a.61.61,0,0,1,.4-.4.63.63,0,0,1,.56.1c15.2,11.51,20.21,53.61,20.42,55.4a.62.62,0,0,1-.41.65A.69.69,0,0,1,403.54,298.38Zm-19.86-54.55c-5.34,18.3,3.47,30.21,12.79,42.81,2,2.76,4.14,5.59,6.1,8.52C401.21,285.71,395.82,254,383.68,243.83Z" style="fill:#ebebeb"></path><path d="M405.29,274.32s16.91-31,34.76-37.58C440.28,262.21,420.76,260.89,405.29,274.32Z" style="fill:#ebebeb"></path><path d="M405.29,274.93a.59.59,0,0,1-.39-.14.61.61,0,0,1-.15-.77c.69-1.27,17.23-31.26,35.09-37.85a.62.62,0,0,1,.83.57c.16,17.89-9.25,22.85-20.14,28.59-4.95,2.61-10.06,5.3-14.84,9.45A.62.62,0,0,1,405.29,274.93Zm34.15-37.29c-13.95,5.76-27.37,26.47-32,34.11a88,88,0,0,1,12.48-7.5C430.31,258.79,439.27,254.06,439.44,237.64Z" style="fill:#ebebeb"></path><path d="M413.25,222.13s-2.3-21.81-10.83-28.5C397.85,207.4,407.21,212.15,413.25,222.13Z" style="fill:#ebebeb"></path><path d="M413.25,222.48a.34.34,0,0,1-.29-.17,65.62,65.62,0,0,0-5.1-7c-4.94-6.15-9.2-11.46-5.77-21.8a.37.37,0,0,1,.23-.23.37.37,0,0,1,.32.06c8.54,6.71,10.87,27.85,11,28.75a.34.34,0,0,1-.23.36A.25.25,0,0,1,413.25,222.48ZM402.6,194.22c-3,9.67,1.07,14.77,5.8,20.66,1.45,1.8,2.93,3.66,4.31,5.74C412,215.63,409.31,200,402.6,194.22Z" style="fill:#ebebeb"></path><path d="M417.22,207.44s9-20.16,19.28-23.74C436.37,198.21,426.17,200,417.22,207.44Z" style="fill:#ebebeb"></path><path d="M417.22,207.79a.33.33,0,0,1-.21-.07.36.36,0,0,1-.11-.42c.38-.83,9.23-20.34,19.48-23.93a.36.36,0,0,1,.32,0,.33.33,0,0,1,.15.29c-.1,11-5.88,14.77-12.57,19.13a68.62,68.62,0,0,0-6.83,4.87A.34.34,0,0,1,417.22,207.79Zm18.92-23.58c-8.24,3.31-15.74,17.5-17.95,22,1.91-1.48,3.84-2.73,5.71-4C430.32,198.08,435.88,194.46,436.14,184.21Z" style="fill:#ebebeb"></path><path d="M156,194.68c-9.51-.67-13.62.44-17.73-8.11s-18.45-13.14-23.11-5.68-6.34,12.64-17.12,8.22-14.33-1.21-15.89,4.68-26.22,3.05-19,11.47h91.34S165.55,195.35,156,194.68Z" style="fill:#f5f5f5"></path><path d="M438.8,149c-5.38-.38-7.7.25-10-4.59s-10.44-7.44-13.08-3.22-3.58,7.16-9.68,4.65-8.11-.68-9,2.65-14.84,1.73-10.75,6.49H438S444.18,149.34,438.8,149Z" style="fill:#f5f5f5"></path><path d="M374.42,31.72c-2.67-4.34-10.3-5.78-17.12-2.41s-2.18-17.75-14.94-14.21c-18.22,5.06-13.15,20.17-20.74,18.79s-29.85,2.32-18.08,9.87h67.35S377.08,36.05,374.42,31.72Z" style="fill:#f5f5f5"></path></g><g id="freepik--Shadow--inject-47"><ellipse id="freepik--path--inject-47" cx="250" cy="416.24" rx="193.89" ry="11.32" style="fill:#f5f5f5"></ellipse></g><g id="freepik--Sign--inject-47"><rect x="81.46" width="1.73" height="125.52" style="fill:#FFC100"></rect><rect x="183.08" width="1.73" height="125.52" style="fill:#FFC100"></rect><rect x="61.8" y="78.79" width="142.68" height="32.46" style="fill:#FFC100"></rect><rect x="61.8" y="78.79" width="142.68" height="32.46" style="fill:#fff;opacity:0.30000000000000004"></rect><polygon points="79.29 92.57 75.76 89.04 70.87 89.04 75.12 93.29 66.55 93.29 66.55 96.75 75.13 96.75 70.87 101 75.76 101 79.29 97.46 81.73 95.01 79.29 92.57" style="fill:#fff"></polygon><rect x="145.01" y="90.28" width="51.29" height="9.48" style="fill:#FFC100;opacity:0.7000000000000001"></rect><rect x="115.29" y="90.28" width="21.97" height="9.48" style="fill:#FFC100;opacity:0.7000000000000001"></rect><rect x="87.87" y="85.35" width="19.35" height="19.35" style="fill:#fff"></rect><path d="M105,90.28h-.68a3,3,0,0,0-1.14.32l-3,1.5-5.62-.94a2.46,2.46,0,0,0-1.39.23l-.54.25,3.67,2.57-3.41,1.6-2.26-.65-1,.48,2.64,2L97.85,95,101,93.44l3.17-1.52a3.19,3.19,0,0,0,.65-.43l0,0h0a2.38,2.38,0,0,0,.47-.53A.41.41,0,0,0,105,90.28Z" style="fill:#263238"></path><rect x="89.19" y="100.76" width="16.7" height="1.62" style="fill:#263238"></rect><rect x="61.8" y="120.9" width="142.68" height="32.46" style="fill:#FFC100"></rect><rect x="61.8" y="120.9" width="142.68" height="32.46" style="fill:#fff;opacity:0.30000000000000004"></rect><polygon points="68.99 134.68 72.53 131.15 77.42 131.15 73.16 135.4 81.73 135.4 81.73 138.85 73.16 138.85 77.42 143.11 72.53 143.11 68.99 139.57 66.55 137.12 68.99 134.68" style="fill:#fff"></polygon><rect x="145.01" y="132.39" width="51.29" height="9.48" style="fill:#FFC100;opacity:0.7000000000000001"></rect><rect x="115.29" y="132.39" width="21.97" height="9.48" style="fill:#FFC100;opacity:0.7000000000000001"></rect><rect x="87.87" y="127.45" width="19.35" height="19.35" style="fill:#fff"></rect><path d="M105,132.39h-.68a3,3,0,0,0-1.14.31l-3,1.5-5.62-.93a2.54,2.54,0,0,0-1.39.22l-.54.26,3.67,2.56-3.41,1.61-2.26-.65-1,.48,2.64,2,5.56-2.67,3.18-1.53L104.2,134a2.86,2.86,0,0,0,.65-.44l0,0h0a2.63,2.63,0,0,0,.47-.53A.41.41,0,0,0,105,132.39Z" style="fill:#263238"></path><rect x="89.19" y="142.86" width="16.7" height="1.62" style="fill:#263238"></rect></g><g id="freepik--Plane--inject-47"><polygon points="327.04 110.53 318.91 105.67 323.64 104.74 336.24 107.24 327.04 110.53" style="fill:#FFC100"></polygon><polygon points="327.04 110.53 318.91 105.67 323.64 104.74 336.24 107.24 327.04 110.53" style="fill:#263238;opacity:0.30000000000000004"></polygon><path d="M383.28,95.63l-9.89-12.42,3.66-.71a15.74,15.74,0,0,1,8.85.83L405,91Z" style="fill:#FFC100"></path><path d="M383.28,95.63l-9.89-12.42,3.66-.71a15.74,15.74,0,0,1,8.85.83L405,91Z" style="fill:#263238;opacity:0.30000000000000004"></path><path d="M435.14,86.73,432.2,86a18.85,18.85,0,0,0-8.71-.21l-96.85,22-.91,4.17,3.78,2.7,98-19.19a18.83,18.83,0,0,0,8.68-4.22A2.57,2.57,0,0,0,435.14,86.73Z" style="fill:#FFC100"></path><rect x="333.1" y="121.6" width="43.35" height="0.53" transform="translate(-17.59 76.44) rotate(-12)" style="fill:#FFC100"></rect><rect x="342.55" y="92.8" width="28.25" height="0.53" transform="translate(-11.56 76.19) rotate(-12)" style="fill:#FFC100"></rect><rect x="314.17" y="129.01" width="11.61" height="0.53" transform="translate(-19.89 69.36) rotate(-12)" style="fill:#FFC100"></rect><path d="M425.06,93.75l-95.71,20.39a3.87,3.87,0,0,0-1.25.48,4.2,4.2,0,0,0,1.41-.05l98-19.18a19,19,0,0,0,4.62-1.55l.36-.17A18.68,18.68,0,0,0,425.06,93.75Z" style="fill:#263238;opacity:0.30000000000000004"></path><polygon points="325.73 111.88 323.27 122.27 328 121.34 336.61 110.1 325.73 111.88" style="fill:#FFC100"></polygon><polygon points="326.64 107.71 320.9 97.32 325.31 96.45 338.04 105.48 326.64 107.71" style="fill:#FFC100"></polygon><path d="M384.14,100l-1.59,30h0a15.68,15.68,0,0,0,10.7-7.78L408.2,95.31Z" style="fill:#FFC100"></path><g style="opacity:0.5"><rect x="358.27" y="103.75" width="1.23" height="2.25" transform="translate(-13.75 74.24) rotate(-11.59)" style="fill:#fff"></rect><rect x="360.71" y="103.25" width="1.23" height="2.25" transform="translate(-13.6 74.69) rotate(-11.58)" style="fill:#fff"></rect><rect x="363.15" y="102.75" width="1.23" height="2.25" transform="translate(-13.45 75.17) rotate(-11.58)" style="fill:#fff"></rect><rect x="365.59" y="102.25" width="1.23" height="2.25" transform="translate(-13.3 75.65) rotate(-11.58)" style="fill:#fff"></rect><rect x="368.03" y="101.75" width="1.23" height="2.25" transform="translate(-13.15 76.13) rotate(-11.58)" style="fill:#fff"></rect><rect x="370.47" y="101.25" width="1.23" height="2.25" transform="translate(-13 76.61) rotate(-11.58)" style="fill:#fff"></rect><rect x="372.92" y="100.75" width="1.23" height="2.25" transform="translate(-12.85 77.09) rotate(-11.58)" style="fill:#fff"></rect><rect x="375.36" y="100.25" width="1.23" height="2.25" transform="translate(-12.7 77.6) rotate(-11.59)" style="fill:#fff"></rect><rect x="377.8" y="99.75" width="1.23" height="2.25" transform="translate(-12.55 78.05) rotate(-11.58)" style="fill:#fff"></rect><rect x="380.24" y="99.24" width="1.23" height="2.25" transform="translate(-12.4 78.53) rotate(-11.58)" style="fill:#fff"></rect><rect x="382.68" y="98.74" width="1.24" height="2.25" transform="translate(-12.25 79) rotate(-11.58)" style="fill:#fff"></rect><rect x="385.12" y="98.24" width="1.23" height="2.25" transform="translate(-12.1 79.49) rotate(-11.58)" style="fill:#fff"></rect><rect x="387.56" y="97.74" width="1.23" height="2.25" transform="translate(-11.95 80) rotate(-11.59)" style="fill:#fff"></rect><rect x="390.01" y="97.24" width="1.24" height="2.25" transform="translate(-11.8 80.44) rotate(-11.58)" style="fill:#fff"></rect><rect x="392.45" y="96.74" width="1.24" height="2.25" transform="translate(-11.65 80.93) rotate(-11.58)" style="fill:#fff"></rect><rect x="394.89" y="96.24" width="1.23" height="2.25" transform="translate(-11.5 81.41) rotate(-11.58)" style="fill:#fff"></rect><rect x="397.33" y="95.74" width="1.24" height="2.25" transform="translate(-11.35 81.88) rotate(-11.58)" style="fill:#fff"></rect><rect x="399.77" y="95.24" width="1.24" height="2.25" transform="translate(-11.2 82.37) rotate(-11.58)" style="fill:#fff"></rect><rect x="402.21" y="94.74" width="1.23" height="2.25" transform="translate(-11.05 82.85) rotate(-11.58)" style="fill:#fff"></rect><rect x="404.66" y="94.24" width="1.23" height="2.25" transform="translate(-10.9 83.36) rotate(-11.59)" style="fill:#fff"></rect><rect x="407.1" y="93.74" width="1.24" height="2.25" transform="translate(-10.75 83.81) rotate(-11.58)" style="fill:#fff"></rect><rect x="409.54" y="93.24" width="1.23" height="2.25" transform="translate(-10.59 84.29) rotate(-11.58)" style="fill:#fff"></rect></g><path d="M435.14,86.73,432.2,86c-.39-.1-.79-.2-1.2-.27l-4.33.84a1.12,1.12,0,0,0,.43,2.2L435.82,87A2.56,2.56,0,0,0,435.14,86.73Z" style="fill:#fff;opacity:0.5"></path></g><g id="freepik--Character--inject-47"><path d="M278.05,134.89c12.23,26.43,42.21,40.81,11,55.42s-34.34-25.4-33.43-37.59S271.44,120.61,278.05,134.89Z" style="fill:#263238"></path><path d="M301.34,172.46h-.06a.26.26,0,0,1-.19-.31c1.61-7.6-4-13.22-10.61-19.74-4.89-4.85-10.44-10.35-13.36-17.42-1.43-3.47-3.37-5-5.75-4.48-6.39,1.32-13.58,16-13.44,24.57a.26.26,0,0,1-.26.26.25.25,0,0,1-.25-.25c-.14-8.75,7.27-23.72,13.85-25.08,1.82-.38,4.4.15,6.32,4.78,2.89,7,8.39,12.44,13.25,17.26,6.66,6.62,12.42,12.34,10.74,20.21A.25.25,0,0,1,301.34,172.46Z" style="fill:#263238"></path><path d="M254.34,144.06c3.08,2.09,8.36-5.95,10.9-16.47-6.35-5.23-10.21-4.42-12.75.16C249.53,133.09,250.83,141.67,254.34,144.06Z" style="fill:#263238"></path><path d="M243.83,309.7S286.74,301,318,308.27c-9.17-13.74-48.06-74.61-48.06-74.61l-18.48,22Z" style="fill:#FFC100"></path><path d="M243.83,309.7S286.74,301,318,308.27c-9.17-13.74-48.06-74.61-48.06-74.61l-18.48,22Z" style="opacity:0.2"></path><path d="M257.19,177.33c-.67,2.94-1.42,5.6-2.27,8.36s-1.78,5.45-2.82,8.15-2.17,5.39-3.5,8.07a55.79,55.79,0,0,1-4.7,8c-.23.33-.48.67-.75,1s-.47.63-.89,1.1a13.26,13.26,0,0,1-1.14,1.2,14.57,14.57,0,0,1-1.14,1,25.66,25.66,0,0,1-4.48,2.85,47.59,47.59,0,0,1-8.64,3.31,77,77,0,0,1-8.52,1.88,75.47,75.47,0,0,1-8.59,1l-1.34-6.94c5-1.91,10-3.86,14.64-6.1a47.85,47.85,0,0,0,6.35-3.57,15.39,15.39,0,0,0,2.26-1.89,3.2,3.2,0,0,0,.36-.41,1.46,1.46,0,0,0,.24-.35l.34-.54c.14-.21.28-.45.42-.69a56.21,56.21,0,0,0,3.09-6.5c.94-2.34,1.84-4.77,2.66-7.24s1.62-5,2.38-7.52,1.5-5.14,2.18-7.54Z" style="fill:#FFC100"></path><path d="M210,217.28l-8.07.42L206.5,226s5.17-1.84,6.43-6.91Z" style="fill:#ffc3bd"></path><polygon points="195.97 222.99 202.5 228.13 206.5 225.98 201.92 217.7 195.97 222.99" style="fill:#ffc3bd"></polygon><polygon points="276.73 408.69 267.68 409.54 265.82 388.73 274.86 387.88 276.73 408.69" style="fill:#ffc3bd"></polygon><polygon points="347.59 377.92 341.02 384.09 326.84 368.5 333.41 362.34 347.59 377.92" style="fill:#ffc3bd"></polygon><path d="M339.22,382.48l4.94-8.89a.72.72,0,0,1,.89-.33l7.6,2.89a1.46,1.46,0,0,1,.7,2.05c-1.78,3.07-2.79,4.47-5,8.38-1.33,2.4-3.93,7.92-5.78,11.24s-5.22,1.68-4.75.13c2.11-6.94,1.71-10.81,1.11-13.87A2.45,2.45,0,0,1,339.22,382.48Z" style="fill:#263238"></path><path d="M266.48,406.84h10.74a.89.89,0,0,1,.85.66L280.4,416a1.33,1.33,0,0,1-1.31,1.7c-3.78,0-5.57,0-10.3,0H254.36c-3.92,0-4.74-4-3.12-4.33,7.28-1.61,11.48-3.83,13.72-5.95A2.23,2.23,0,0,1,266.48,406.84Z" style="fill:#263238"></path><polygon points="265.82 388.74 266.78 399.46 275.9 399.46 274.87 387.88 265.82 388.74" style="opacity:0.2"></polygon><polygon points="333.42 362.34 326.85 368.51 334.16 376.54 340.73 370.37 333.42 362.34" style="opacity:0.2"></polygon><path d="M243.14,177.68c.6,6.8,2.86,20.29,9.62,47l36.63-3.17c-1.76-13.73-2.59-22.62.83-48.53a6.47,6.47,0,0,0-6-7.32c-2.6-.14-5.68-.23-8.77-.11A117.87,117.87,0,0,0,258.79,167c-3.32.6-6.88,1.46-9.73,2.22A8,8,0,0,0,243.14,177.68Z" style="fill:#263238"></path><path d="M272.15,147c-.59,5.44-.78,15.34,3.27,18.58,0,0,.32,5.62-11.1,7.46-8-.68-5.53-6-5.53-6,5.84-1.94,5.3-6.35,3.9-10.42Z" style="fill:#ffc3bd"></path><path d="M268.3,150.91l-5.6,5.68a18.7,18.7,0,0,1,.77,2.91c2.25-.53,5.51-2.87,5.54-5.27A9.7,9.7,0,0,0,268.3,150.91Z" style="opacity:0.2"></path><path d="M276.94,138.49c-2.27,8.7-3.05,12.42-8.38,16.07-8,5.48-18.2.79-18.57-8.41-.34-8.28,3.43-21.1,12.73-22.91A12.25,12.25,0,0,1,276.94,138.49Z" style="fill:#ffc3bd"></path><path d="M257.92,122.55c-3.69,3.7,4,13.07,16.82,21.34,9.91-6,6.51-14,2-18.6S262.15,118.3,257.92,122.55Z" style="fill:#263238"></path><path d="M261.38,132.18a.25.25,0,0,1-.18-.08c-4.08-4.07-5.67-7.16-4.73-9.18,1.39-3,7.67-2.43,7.93-2.41a.26.26,0,0,1,0,.51c-.07,0-6.19-.53-7.43,2.12-.83,1.78.77,4.75,4.63,8.6a.25.25,0,0,1,0,.36A.27.27,0,0,1,261.38,132.18Z" style="fill:#263238"></path><path d="M277.66,146.34a6.57,6.57,0,0,1-3.86,3.2c-2.21.67-3.36-1.29-2.78-3.4.52-1.89,2.29-4.52,4.52-4.26A3,3,0,0,1,277.66,146.34Z" style="fill:#ffc3bd"></path><path d="M252.76,224.71s-10.58,54.78-2.31,93.43C256,344,263.1,396.36,263.1,396.36l15.62-.41s-4.06-54.87-7.19-76.45c-5.35-36.92,8.05-97.11,8.05-97.11Z" style="fill:#263238"></path><path d="M267.05,235.78l7.81,12.32a377.56,377.56,0,0,0-4.47,44.13C259.41,272.56,264.61,246.19,267.05,235.78Z" style="opacity:0.2"></path><polygon points="261.72 396.96 280.13 396.91 280.07 390.75 260.58 390.49 261.72 396.96" style="fill:#FFC100"></polygon><path d="M260.77,224.13s7.27,58.13,23,89.87c12.73,25.64,46.69,62.14,46.69,62.14l8.69-8.95s-22.95-39.66-32.41-56.69c-23.19-41.76-4.24-73.63-17.38-89Z" style="fill:#263238"></path><polygon points="329.61 377.33 340.82 366.41 337.1 361.35 325.22 373.21 329.61 377.33" style="fill:#FFC100"></polygon><path d="M289.75,219.34l1.94,3.14c.15.24-.13.53-.56.57l-38.41,3.32c-.33,0-.62-.11-.66-.32l-.61-3.25c0-.22.23-.44.59-.47l37.09-3.21A.7.7,0,0,1,289.75,219.34Z" style="fill:#fff"></path><path d="M285.13,223.92l1-.08c.2,0,.34-.14.32-.26l-.84-4.22c0-.12-.2-.21-.4-.19l-1,.08c-.19,0-.34.14-.31.26l.83,4.22C284.75,223.85,284.93,223.94,285.13,223.92Z" style="fill:#263238"></path><path d="M255.54,226.48l1-.08c.19,0,.34-.14.31-.26l-.83-4.22c0-.12-.21-.21-.41-.19l-1,.08c-.2,0-.34.13-.32.26l.84,4.22C255.16,226.41,255.35,226.5,255.54,226.48Z" style="fill:#263238"></path><path d="M270.34,225.2l1-.08c.2,0,.34-.14.31-.26l-.83-4.22c0-.12-.21-.21-.4-.19l-1,.08c-.2,0-.34.14-.31.26l.83,4.22C270,225.13,270.14,225.22,270.34,225.2Z" style="fill:#263238"></path><path d="M262.22,138.2c-.14.71-.63,1.22-1.1,1.13s-.73-.75-.59-1.47.63-1.22,1.1-1.13S262.36,137.48,262.22,138.2Z" style="fill:#263238"></path><path d="M254.13,136.6c-.15.72-.64,1.23-1.11,1.13s-.73-.74-.59-1.46.63-1.22,1.1-1.13S254.27,135.89,254.13,136.6Z" style="fill:#263238"></path><path d="M253.73,135.22l-1.62-.83S252.73,135.9,253.73,135.22Z" style="fill:#263238"></path><path d="M256.91,138.39a19.35,19.35,0,0,1-3.45,4.07,3.13,3.13,0,0,0,2.46,1Z" style="fill:#ed847e"></path><path d="M259.23,146.86a5.87,5.87,0,0,0,4.08-1.56.18.18,0,0,0-.25-.25,5.82,5.82,0,0,1-5.1,1.32.18.18,0,0,0-.21.14.17.17,0,0,0,.14.21A6.43,6.43,0,0,0,259.23,146.86Z" style="fill:#263238"></path><path d="M267.09,135.42a.41.41,0,0,0,.18,0,.36.36,0,0,0,.12-.49,4.15,4.15,0,0,0-3.23-2.09.35.35,0,0,0-.36.34.35.35,0,0,0,.34.37,3.46,3.46,0,0,1,2.64,1.75A.37.37,0,0,0,267.09,135.42Z" style="fill:#263238"></path><path d="M251.88,132.55a.34.34,0,0,0,.17-.05,3.47,3.47,0,0,1,3.16-.2.36.36,0,0,0,.48-.15.36.36,0,0,0-.15-.49,4.21,4.21,0,0,0-3.84.22.36.36,0,0,0-.13.49A.35.35,0,0,0,251.88,132.55Z" style="fill:#263238"></path><path d="M274.86,164.56A173.5,173.5,0,0,0,273.49,190c.09,10.41-2.56,57,11.67,111.64,22.75.13,32.83,6.68,32.83,6.68s-22.06-89-24.85-135a9.07,9.07,0,0,0-8.51-8.52C280.11,164.41,274.86,164.56,274.86,164.56Z" style="fill:#FFC100"></path><path d="M297.86,240.4a.34.34,0,0,1-.17-.05c-6.4-3.81-12.94-14.51-13.21-15a.34.34,0,0,1,.11-.47.35.35,0,0,1,.48.11c.07.11,6.73,11,13,14.73a.34.34,0,0,1,.12.48A.34.34,0,0,1,297.86,240.4Z" style="fill:#fff"></path><path d="M294.39,187.05,287,180.57s3.23,14,9.75,24.1C295.83,198.56,295,192.64,294.39,187.05Z" style="opacity:0.2"></path><path d="M257.67,166.33s-.82,9.64-.82,34.43c0,23.92,3,58.37-1.59,101.76a22,22,0,0,0-11.43,7.18s6.14-78.76-.92-132.13a8.89,8.89,0,0,1,7.37-9.65C254.72,167.09,257.67,166.33,257.67,166.33Z" style="fill:#FFC100"></path><rect x="305.42" y="240.55" width="22.77" height="8.09" transform="translate(-51.39 87.68) rotate(-14.59)" style="fill:#FFC100"></rect><rect x="305.88" y="245.61" width="22.77" height="1.46" transform="translate(-51.82 87.86) rotate(-14.59)" style="fill:#fff;opacity:0.8"></rect><rect x="307.71" y="238.54" width="19.32" height="9.52" transform="translate(-43.11 70.17) rotate(-11.82)" style="fill:#263238"></rect><path d="M309.42,234.85l-1.56,7.94,7.49-1.89s.5-5.46-2.57-7.62Z" style="fill:#ffc3bd"></path><polygon points="309.76 246.92 317.29 246.19 315.35 240.9 307.86 242.79 309.76 246.92" style="fill:#ffc3bd"></polygon><path d="M290.39,167.34c2.19,2.27,4.14,4.5,6.12,6.84s3.86,4.7,5.67,7.18,3.61,5,5.28,7.72c.83,1.37,1.66,2.73,2.42,4.23l.57,1.11.55,1.18.54,1.2c.18.39.37.9.54,1.34a36.52,36.52,0,0,1,1.4,5.05c.33,1.61.59,3.18.81,4.73.43,3.1.68,6.15.86,9.19a145.9,145.9,0,0,1-.12,18.11l-7.06.38c-1.14-5.71-2.21-11.49-3.4-17.11-.59-2.82-1.22-5.6-1.93-8.28-.34-1.34-.72-2.65-1.13-3.9a32.89,32.89,0,0,0-1.29-3.37c-.13-.23-.2-.41-.36-.68l-.45-.78-.46-.78-.53-.81c-.68-1.07-1.48-2.18-2.25-3.28-1.59-2.2-3.36-4.39-5.13-6.59-3.56-4.35-7.41-8.74-11.09-13Z" style="fill:#FFC100"></path><path d="M337.49,387.27a1.07,1.07,0,0,0,.35-.06c1.07-.37,1.78-2.35,2.1-3.51a.16.16,0,0,0-.06-.18.17.17,0,0,0-.19,0c-.33.17-3.2,1.7-3.29,2.84a.69.69,0,0,0,.3.63A1.3,1.3,0,0,0,337.49,387.27Zm2-3.25c-.5,1.59-1.14,2.64-1.75,2.85a.82.82,0,0,1-.81-.19.36.36,0,0,1-.17-.31C336.81,385.67,338.49,384.58,339.48,384Z" style="fill:#FFC100"></path><path d="M337.05,384.47a6.5,6.5,0,0,0,2.81-.66.17.17,0,0,0,.09-.16.19.19,0,0,0-.09-.15c-.1-.05-2.37-1.3-3.59-.87a1.07,1.07,0,0,0-.67.64.7.7,0,0,0,.16.88A2.07,2.07,0,0,0,337.05,384.47Zm2.33-.82c-1,.42-2.86.67-3.39.22-.09-.07-.18-.19-.06-.47a.71.71,0,0,1,.45-.43C337.22,382.67,338.73,383.34,339.38,383.65Z" style="fill:#FFC100"></path><path d="M261.72,408.58a14.53,14.53,0,0,0,2.93-.37.19.19,0,0,0,.14-.16.17.17,0,0,0-.1-.18c-.44-.21-4.34-2-5.32-1.34a.59.59,0,0,0-.26.55,1.32,1.32,0,0,0,.53,1A3.55,3.55,0,0,0,261.72,408.58ZM264,408c-1.16.22-3.3.5-4.18-.17a1,1,0,0,1-.39-.74.24.24,0,0,1,.1-.24C260.12,406.45,262.42,407.26,264,408Z" style="fill:#FFC100"></path><path d="M264.61,408.21a.19.19,0,0,0,.12,0,.17.17,0,0,0,0-.18c0-.16-.92-4-3-3.76-.53.07-.68.33-.7.54-.14,1,2.32,3,3.49,3.43Zm-2.67-3.63c1.35,0,2.14,2.23,2.4,3.13-1.27-.67-3-2.27-2.94-2.89,0-.05,0-.19.39-.23Z" style="fill:#FFC100"></path><path d="M261.83,136.81l-1.62-.83S260.82,137.5,261.83,136.81Z" style="fill:#263238"></path><path d="M277.53,164.32l-2.78.07a.33.33,0,0,0-.32.27c-.35,1.75-2.22,12.28-1,31.2,1.19-5.52,4.1-17.2,5.33-19.75C277.7,175.31,276,174,276,174l3.12-2-1.25-7.35A.32.32,0,0,0,277.53,164.32Z" style="fill:#FFC100"></path><path d="M277.53,164.32l-2.78.07a.33.33,0,0,0-.32.27c-.35,1.75-2.22,12.28-1,31.2,1.19-5.52,4.1-17.2,5.33-19.75C277.7,175.31,276,174,276,174l3.12-2-1.25-7.35A.32.32,0,0,0,277.53,164.32Z" style="fill:#fff;opacity:0.2"></path><path d="M254.62,166.62l3.29-.57s.29,9.4-1.05,30.2c-1.19-5.52-3.66-16.95-3.8-20.14,1.06-.8,2.76-2.16,2.76-2.16l-3.12-2Z" style="fill:#FFC100"></path><path d="M254.62,166.62l3.29-.57s.29,9.4-1.05,30.2c-1.19-5.52-3.66-16.95-3.8-20.14,1.06-.8,2.76-2.16,2.76-2.16l-3.12-2Z" style="fill:#fff;opacity:0.2"></path><rect x="157.98" y="295.53" width="70.63" height="112.34" rx="16.46" style="fill:#263238"></rect><path d="M198.27,222.61a9.33,9.33,0,0,1,9.32,9.32V339.28a9.33,9.33,0,0,1-9.32,9.32h-9.94a9.33,9.33,0,0,1-9.32-9.32V231.93a9.33,9.33,0,0,1,9.32-9.32h9.94m0-1.79h-9.94a11.14,11.14,0,0,0-11.11,11.11V339.28a11.14,11.14,0,0,0,11.11,11.11h9.94a11.14,11.14,0,0,0,11.11-11.11V231.93a11.14,11.14,0,0,0-11.11-11.11Z" style="fill:#263238"></path><circle cx="214.78" cy="409.14" r="4.19" style="fill:#263238"></circle><path d="M204.23,409.14A4.2,4.2,0,1,1,200,405,4.2,4.2,0,0,1,204.23,409.14Z" style="fill:#263238"></path><path d="M180.11,409.14a4.19,4.19,0,1,1-4.19-4.19A4.2,4.2,0,0,1,180.11,409.14Z" style="fill:#263238"></path><circle cx="161.17" cy="409.14" r="4.19" style="fill:#263238"></circle><rect x="147.34" y="295.53" width="70.63" height="112.34" rx="16.46" style="fill:#FFC100"></rect><rect x="147.34" y="295.53" width="70.63" height="112.34" rx="16.46" style="fill:#fff;opacity:0.2"></rect><rect x="149.99" y="305.99" width="57.47" height="91.41" rx="13.39" style="fill:#FFC100"></rect><path d="M159.73,390.79a3.83,3.83,0,0,1-3.82-3.82V316.43a3.82,3.82,0,1,1,7.63,0V387A3.82,3.82,0,0,1,159.73,390.79Zm0-77.28a2.92,2.92,0,0,0-2.92,2.92V387a2.92,2.92,0,1,0,5.83,0V316.43A2.91,2.91,0,0,0,159.73,313.51Z" style="fill:#fff"></path><path d="M197.86,390.79A3.83,3.83,0,0,1,194,387V316.43a3.82,3.82,0,0,1,7.64,0V387A3.83,3.83,0,0,1,197.86,390.79Zm0-77.28a2.92,2.92,0,0,0-2.92,2.92V387a2.92,2.92,0,1,0,5.84,0V316.43A2.92,2.92,0,0,0,197.86,313.51Z" style="fill:#fff"></path><path d="M185.15,390.79a3.83,3.83,0,0,1-3.82-3.82V316.43a3.82,3.82,0,1,1,7.64,0V387A3.83,3.83,0,0,1,185.15,390.79Zm0-77.28a2.92,2.92,0,0,0-2.92,2.92V387a2.92,2.92,0,1,0,5.84,0V316.43A2.92,2.92,0,0,0,185.15,313.51Z" style="fill:#fff"></path><path d="M172.44,390.79a3.83,3.83,0,0,1-3.82-3.82V316.43a3.82,3.82,0,1,1,7.63,0V387A3.82,3.82,0,0,1,172.44,390.79Zm0-77.28a2.92,2.92,0,0,0-2.92,2.92V387a2.92,2.92,0,1,0,5.83,0V316.43A2.91,2.91,0,0,0,172.44,313.51Z" style="fill:#fff"></path></g></svg>